# xmcd
#
# Track frame offsets: 
#        150
#        13137
#        29674
#        42654
#        54375
#        65055
#        78567
#        88607
#        100134
#        108216
#        120269
#        131259
#        143045
#        155141
#        161735
#        171247
#        182667
#        193089
#        210005
#        220335
#        230042
#        242095
#        254789
#        271268
#        281168
#        294231
#        304749
#
# Disc length: 4173 seconds
#
# Revision: 0
# Processed by: cddbd v1.5.2PL0 Copyright (c) Steve Scherf et al.
# Submitted via: ExactAudioCopyFreeDBPlugin 1.0
#
DISCID=91104b1b
DTITLE=Ike and Tina Turner - 27 St. Louis Sizzlers CD 1
DYEAR=2017
DGENRE=R&B
TTITLE0=A Fool in Love
TTITLE1=You Should'a Treated Me Right
TTITLE2=I Idolize You 
TTITLE3=Letter From Tina 
TTITLE4=I Dig You 
TTITLE5=It's Gonna Work Out Fine
TTITLE6=I'm Jealous 
TTITLE7=Poor Fool 
TTITLE8=This Man's Crazy 
TTITLE9=Tra La La La La 
TTITLE10=Tinaroo 
TTITLE11=Gonna Find Me A Substitute
TTITLE12=Kinda' Strange 
TTITLE13=Why Should I 
TTITLE14=Mojo Queen 
TTITLE15=I'm Gonna Cut You Loose 
TTITLE16=I'm Fallin In Love 
TTITLE17=Foolish 
TTITLE18=Good Lovin'
TTITLE19=If 
TTITLE20=Won't You Forgive Me 
TTITLE21=Sleepless 
TTITLE22=Chances Are 
TTITLE23=You Can't Blame Me 
TTITLE24=You Can't Love Two
TTITLE25=You're My Baby 
TTITLE26=The Way You Love Me
EXTD=
EXTT0=
EXTT1=
EXTT2=
EXTT3=
EXTT4=
EXTT5=
EXTT6=
EXTT7=
EXTT8=
EXTT9=
EXTT10=
EXTT11=
EXTT12=
EXTT13=
EXTT14=
EXTT15=
EXTT16=
EXTT17=
EXTT18=
EXTT19=
EXTT20=
EXTT21=
EXTT22=
EXTT23=
EXTT24=
EXTT25=
EXTT26=
PLAYORDER=
